<?xml version="1.0" encoding="UTF-8"?>
<svg version="1.1" xmlns="http://www.w3.org/2000/svg" width="24" height="24" fill="none">
<path d="M0 0 C1.47668858 0.0133035 2.95331108 0.03716415 4.4296875 0.0703125 C5.18378906 0.07933594 5.93789063 0.08835938 6.71484375 0.09765625 C8.57826004 0.1212438 10.44151343 0.15711531 12.3046875 0.1953125 C12.39016342 0.82314133 12.47563934 1.45097015 12.56370544 2.0978241 C13.45409529 8.63554024 14.34665748 15.17295718 15.24047852 21.71020508 C15.57371789 24.14958217 15.90640434 26.58903485 16.23852539 29.02856445 C16.71615385 32.53617074 17.19577369 36.04349985 17.67578125 39.55078125 C17.82373642 40.64053757 17.97169159 41.73029388 18.12413025 42.85307312 C18.26419998 43.87375381 18.40426971 44.89443451 18.54858398 45.94604492 C18.73178444 47.28840462 18.73178444 47.28840462 18.91868591 48.65788269 C19.30386435 51.18990144 19.78210826 53.68837285 20.3046875 56.1953125 C22.76250254 50.77524844 25.21589889 45.35321232 27.66552734 39.92944336 C28.49639855 38.09135344 29.32839642 36.25377232 30.16162109 34.41674805 C31.371265 31.74927216 32.57732065 29.0802159 33.78125 26.41015625 C34.1741925 25.54006927 34.56713501 24.6699823 34.97198486 23.77352905 C37.90879515 17.21557846 40.55278707 10.58267148 43.02880859 3.83813477 C43.44984863 2.96600342 43.87088867 2.09387207 44.3046875 1.1953125 C47.6700511 0.07352463 50.325063 0.02760091 53.8671875 0.0078125 C55.02347656 -0.00636719 56.17976563 -0.02054687 57.37109375 -0.03515625 C60.3046875 0.1953125 60.3046875 0.1953125 62.3046875 2.1953125 C62.33087158 4.23066711 62.33087158 4.23066711 62.01269531 6.77075195 C61.89887512 7.72387772 61.78505493 8.67700348 61.66778564 9.65901184 C61.53249451 10.69837387 61.39720337 11.7377359 61.2578125 12.80859375 C61.12654968 13.887957 60.99528687 14.96732025 60.86004639 16.07939148 C60.43526099 19.55689603 59.99559226 23.03231819 59.5546875 26.5078125 C58.99299726 31.02420138 58.43689673 35.54126586 57.8828125 40.05859375 C57.74637329 41.16921173 57.60993408 42.27982971 57.46936035 43.42410278 C56.60587788 50.52193133 55.80153717 57.62239544 55.1015625 64.73828125 C55.01867981 65.55315506 54.93579712 66.36802887 54.85040283 67.20759583 C54.31453374 72.8815968 54.21864625 78.49807919 54.3046875 84.1953125 C59.32989052 83.94405235 62.74338408 82.24470234 66.62109375 79.1953125 C69.25122391 76.07088874 69.36363575 72.8983942 69.8359375 68.9375 C71.35121686 60.07311572 79.26958024 53.27245529 86.2421875 48.2578125 C87.2528125 47.5771875 88.2634375 46.8965625 89.3046875 46.1953125 C88.89476563 45.26589844 88.48484375 44.33648437 88.0625 43.37890625 C87.51799884 42.13030875 86.97374102 40.88160511 86.4296875 39.6328125 C86.16027344 39.02373047 85.89085938 38.41464844 85.61328125 37.78710938 C82.45150391 30.49959819 80.23926743 24.07652066 82.3046875 16.1953125 C85.36216377 8.97334268 90.90809158 3.97705884 98.12890625 1.05078125 C105.38020434 -0.90252045 114.57788681 -1.11971884 121.5546875 2.0078125 C125.97143822 5.00489335 129.617115 9.132595 131.3046875 14.1953125 C131.81819071 21.50285825 131.92077459 27.71648979 128.3046875 34.1953125 C124.6746875 34.1953125 121.0446875 34.1953125 117.3046875 34.1953125 C117.7996875 33.0196875 118.2946875 31.8440625 118.8046875 30.6328125 C120.56242088 25.92608566 121.07337817 21.78090838 119.6171875 16.8828125 C117.73452539 14.46224693 116.28041064 13.92271149 113.3046875 13.1953125 C109.10105172 13.48521842 106.83186373 13.84386168 103.3046875 16.1953125 C100.9879737 22.21876839 103.96963859 27.59451106 106.3046875 33.1953125 C108.21205916 37.13350708 110.27405689 40.9781979 112.3671875 44.8203125 C119.07775108 57.14617107 124.52992766 68.81738194 120.4609375 83.171875 C117.76097675 89.21030072 114.01703864 92.94795341 108.3046875 96.1953125 C107.71042969 96.53433594 107.11617187 96.87335938 106.50390625 97.22265625 C99.51044693 100.47229367 90.61202772 100.58164849 83.35546875 98.24609375 C78.51235241 95.95122398 74.78635302 93.2572556 71.3046875 89.1953125 C70.59505859 89.77539062 70.59505859 89.77539062 69.87109375 90.3671875 C62.23837639 96.3781384 55.6765178 99.93121321 45.7578125 99.515625 C42.56758421 99.09906653 40.69676396 98.36313179 38.3046875 96.1953125 C30.69514764 85.65331582 36.33064101 66.63031447 38.02929688 54.61450195 C38.38009111 51.93872612 38.38009111 51.93872612 38.3046875 48.1953125 C37.79494385 49.36626465 37.2852002 50.5372168 36.76000977 51.74365234 C34.87269564 56.07868752 32.98467384 60.41341418 31.09643555 64.74804688 C30.27853324 66.62589209 29.46082414 68.50382147 28.64331055 70.38183594 C27.46974383 73.07769446 26.29548779 75.7732518 25.12109375 78.46875 C24.75440079 79.31150482 24.38770782 80.15425964 24.00990295 81.02255249 C23.6696257 81.80321075 23.32934845 82.58386902 22.97875977 83.38818359 C22.6789772 84.07657318 22.37919464 84.76496277 22.07032776 85.47421265 C21.51230376 86.72860726 20.91867392 87.96733966 20.3046875 89.1953125 C16.3446875 89.1953125 12.3846875 89.1953125 8.3046875 89.1953125 C7.5852605 84.35831391 6.87346285 79.52027393 6.16845703 74.68115234 C5.92799585 73.03794713 5.68551775 71.39503567 5.44091797 69.75244141 C5.08800352 67.37999201 4.74255722 65.00655158 4.3984375 62.6328125 C4.23438416 61.54637451 4.23438416 61.54637451 4.0670166 60.43798828 C3.38151627 55.64362379 3.20934035 51.03894784 3.3046875 46.1953125 C2.6446875 46.1953125 1.9846875 46.1953125 1.3046875 46.1953125 C1.15966797 47.95681641 1.15966797 47.95681641 1.01171875 49.75390625 C0.31180941 56.01876905 -1.10937654 62.12236828 -2.54174805 68.25219727 C-3.00714534 70.2549415 -3.45600896 72.26094435 -3.90429688 74.26757812 C-8.06214759 92.45678286 -8.06214759 92.45678286 -16.34765625 98.125 C-20.74145483 100.12816275 -25.0036388 100.04769291 -29.6953125 99.1953125 C-33.60607175 97.20562797 -35.27220348 95.82997604 -37.6953125 92.1953125 C-39.43737504 86.19623799 -38.6657903 81.18040046 -36.1171875 75.55078125 C-33.41296078 71.0709771 -29.560448 67.27531541 -24.60427856 65.40710449 C-20.68055806 63.76527809 -18.26312254 62.43261486 -16.44847107 58.47834778 C-15.52894644 54.95690015 -14.86010666 51.46117703 -14.26171875 47.87109375 C-14.0139287 46.55955163 -13.76247919 45.24869612 -13.5075531 43.93852234 C-12.84834093 40.50405885 -12.23438381 37.06308924 -11.63116455 33.6184082 C-10.77059038 28.75349813 -9.84817027 23.89985929 -8.93309021 19.04496765 C-8.44999686 16.46195757 -7.97885422 13.87667907 -7.52064514 11.28913879 C-7.20407204 9.54173653 -7.20407204 9.54173653 -6.88110352 7.7590332 C-6.69951187 6.73042679 -6.51792023 5.70182037 -6.33082581 4.64204407 C-5.26155364 0.52533723 -4.23412617 0.22379102 0 0 Z M86.3046875 62.1953125 C83.13310123 65.8652909 81.03257839 69.41176965 80.7421875 74.3203125 C81.52624041 79.72156591 83.45761962 82.60478183 87.5546875 86.1328125 C91.3967896 87.61726104 94.40562919 87.48957194 98.3046875 86.1953125 C101.02670191 84.08575133 101.9926183 82.51209229 102.78515625 79.16796875 C103.53433866 70.67252296 99.11760811 63.49044122 95.3046875 56.1953125 C92.16774866 56.1953125 88.52022429 60.23797736 86.3046875 62.1953125 Z M-26.6953125 78.1953125 C-28.14692188 81.21311122 -28.14692188 81.21311122 -28.6953125 84.1953125 C-28.3653125 84.8553125 -28.0353125 85.5153125 -27.6953125 86.1953125 C-26.0453125 85.8653125 -24.3953125 85.5353125 -22.6953125 85.1953125 C-22.19163493 83.73824524 -21.69248694 82.27961154 -21.1953125 80.8203125 C-20.916875 80.00820312 -20.6384375 79.19609375 -20.3515625 78.359375 C-19.59857945 76.25322008 -19.59857945 76.25322008 -19.6953125 74.1953125 C-22.96793188 74.1953125 -24.38723249 76.00263649 -26.6953125 78.1953125 Z " fill="#10B880" transform="translate(38.6953125,-0.1953125)"/>
<path d="M0 0 C4.41675072 2.99708085 8.0624275 7.1247825 9.75 12.1875 C10.26350321 19.49504575 10.36608709 25.70867729 6.75 32.1875 C3.12 32.1875 -0.51 32.1875 -4.25 32.1875 C-3.755 31.011875 -3.26 29.83625 -2.75 28.625 C-0.99226662 23.91827316 -0.48130933 19.77309588 -1.9375 14.875 C-3.82016211 12.45443443 -5.27427686 11.91489899 -8.25 11.1875 C-12.45363578 11.47740592 -14.72282377 11.83604918 -18.25 14.1875 C-20.5667138 20.21095589 -17.58504891 25.58669856 -15.25 31.1875 C-13.34262834 35.12569458 -11.28063061 38.9703854 -9.1875 42.8125 C-2.47693642 55.13835857 2.97524016 66.80956944 -1.09375 81.1640625 C-3.79371075 87.20248822 -7.53764886 90.94014091 -13.25 94.1875 C-13.84425781 94.52652344 -14.43851563 94.86554688 -15.05078125 95.21484375 C-22.06533693 98.47428397 -30.95238423 98.55441182 -38.234375 96.23828125 C-44.64304461 93.23303233 -47.87140357 89.99392845 -51 83.625 C-53.44647978 76.40788466 -53.41886281 68.89615143 -50.25 61.9375 C-45.90926226 54.29829205 -39.46762815 48.9992521 -32.25 44.1875 C-32.65992187 43.25808594 -33.06984375 42.32867187 -33.4921875 41.37109375 C-34.03668866 40.12249625 -34.58094648 38.87379261 -35.125 37.625 C-35.39441406 37.01591797 -35.66382812 36.40683594 -35.94140625 35.77929688 C-39.10318359 28.49178569 -41.31542007 22.06870816 -39.25 14.1875 C-36.19252373 6.96553018 -30.64659592 1.96924634 -23.42578125 -0.95703125 C-16.17448316 -2.91033295 -6.97680069 -3.12753134 0 0 Z M-35.25 60.1875 C-38.42158627 63.8574784 -40.52210911 67.40395715 -40.8125 72.3125 C-40.02844709 77.71375341 -38.09706788 80.59696933 -34 84.125 C-30.1578979 85.60944854 -27.14905831 85.48175944 -23.25 84.1875 C-20.52798559 82.07793883 -19.5620692 80.50427979 -18.76953125 77.16015625 C-18.02034884 68.66471046 -22.43707939 61.48262872 -26.25 54.1875 C-29.38693884 54.1875 -33.03446321 58.23016486 -35.25 60.1875 Z " fill="#3799C9" transform="translate(160.25,1.8125)"/>
</svg>
